<?xml version="1.0" encoding="utf-8"?>
<!-- Generator: Adobe Illustrator 26.3.1, SVG Export Plug-In . SVG Version: 6.00 Build 0)  -->
<svg version="1.1" id="Шар_1" xmlns="http://www.w3.org/2000/svg" xmlns:xlink="http://www.w3.org/1999/xlink" x="0px" y="0px"
	 viewBox="0 0 755 285.6" style="enable-background:new 0 0 755 285.6;" xml:space="preserve">
<style type="text/css">
	.st0{fill-rule:evenodd;clip-rule:evenodd;fill:#EB3323;}
	.st1{fill:#EB3323;}
</style>
<g>
	<path class="st0" d="M512.4,161.3c-15.7-8.5-34.6-8.5-50.3,0c-7.5,4.2-13.7,10.3-18,17.7c-4.4,7.4-6.7,15.9-6.6,24.6
		c-0.1,8.7,2.2,17.3,6.6,24.7c4.4,7.3,10.6,13.3,18,17.5c15.7,8.7,34.7,8.7,50.3,0c15.3-8.6,24.6-24.9,24.3-42.4
		c0.1-8.6-2.2-17.1-6.5-24.6C526,171.5,519.8,165.4,512.4,161.3z M502.9,219.9c-4,4.3-9.6,6.7-15.5,6.6c-6,0.1-11.8-2.3-15.9-6.6
		c-4.3-4.3-6.7-10.2-6.5-16.3c-0.2-6,2.2-11.8,6.5-16.1c4.2-4.2,10-6.5,15.9-6.4c5.8-0.1,11.4,2.3,15.5,6.5c2.1,2.1,3.7,4.6,4.8,7.3
		c1.1,2.7,1.6,5.7,1.6,8.6C509.5,209.6,507.2,215.5,502.9,219.9z"/>
	<path class="st0" d="M575.6,184.7c0,2,1.3,3.5,4,4.5c4.5,1.3,9.2,2.1,13.9,2.3c13.4,1.3,23.6,4.5,30.5,9.7
		c6.8,5.2,10.7,13.4,10.4,21.9c-0.3,8.6-4.8,16.4-12.1,21.1c-8,5.4-18.7,8-31.9,8c-10.7,0.4-21.2-2.5-30.1-8.3
		c-7.7-5.3-12.9-13.5-14.4-22.8h27.8c2.3,5.5,8.2,8.3,17.7,8.3c3.9,0.2,7.8-0.5,11.5-1.9c2.8-1.2,4.2-2.9,4.2-4.9
		c0-2.6-1.8-4.9-4.3-5.6c-5.4-1.7-10.9-2.8-16.5-3.1c-12.1-1.3-21.5-4.6-28.1-9.9c-6.3-4.8-10-12.4-9.9-20.3
		c-0.1-8.5,4.2-16.4,11.4-20.9c7.6-5.3,17.7-7.9,30.1-7.9c10.9-0.5,21.7,2.4,30.9,8.4c7.7,5.2,12.8,13.5,14,22.8h-30.4
		c-0.8-2.5-2.7-4.6-5.1-5.8c-3.1-1.4-6.4-2.1-9.8-2C580.2,178.3,575.6,180.4,575.6,184.7z"/>
	<path class="st0" d="M419.6,165c-7.1-5.9-16.2-9-25.4-8.5h-64.7V181h13.5v70h26.9v-32.1h24.3c9.2,0.4,18.3-2.6,25.4-8.5
		c6.4-5.8,9.9-14.1,9.6-22.7C429.5,179,426,170.7,419.6,165z M399.1,194.3c-1.9,1.6-4.4,2.4-6.9,2.3h-22.5v-17h22.5
		c2.5-0.1,5,0.7,6.9,2.3c1.7,1.6,2.6,3.9,2.6,6.2C401.7,190.4,400.8,192.7,399.1,194.3z"/>
	<polygon class="st0" points="731.4,156.5 731.4,182.9 699.4,182.9 699.4,251 672.5,251 672.5,182.9 640.6,182.9 640.6,156.5 	"/>
</g>
<g>
	<path class="st0" d="M525.9,36.4c-7.7-4.2-16.3-6.4-25.1-6.2c-8.9-0.1-17.6,2.1-25.3,6.4c-7.4,4.1-13.7,10.2-18,17.5
		c-4.4,7.4-6.7,16-6.6,24.6c-0.1,8.7,2.2,17.3,6.6,24.8c4.4,7.4,10.6,13.4,18.1,17.6c7.7,4.4,16.5,6.6,25.3,6.5
		c8.8,0.1,17.5-2.1,25.1-6.5c7.4-4.2,13.6-10.3,17.9-17.6c4.4-7.5,6.6-16.1,6.5-24.8c0.1-8.6-2.2-17.1-6.5-24.6
		C539.6,46.6,533.4,40.5,525.9,36.4z M521.4,87.4c-1.1,2.8-2.7,5.4-4.8,7.5c-4,4.3-9.7,6.7-15.7,6.6c-6,0.1-11.8-2.3-16-6.6
		c-4.3-4.3-6.7-10.2-6.5-16.3c-0.2-6,2.2-11.9,6.5-16.1c4.2-4.2,9.9-6.5,15.8-6.4c5.9-0.1,11.6,2.3,15.7,6.5c4.2,4.2,6.5,10,6.4,16
		C522.9,81.7,522.4,84.6,521.4,87.4z"/>
	<polygon class="st0" points="658.9,31.5 624.3,126.3 585.7,126.3 551.3,31.5 580.2,31.5 604.6,102.1 606,102.1 630.7,31.5 	"/>
	<path class="st0" d="M409.8,31.5h24.9v94.7h-41.5L368.8,54h-1.4v72.2h-25V56.1h-13.5V31.5h47.6c2.2-0.1,4.4,0.6,6.2,1.9
		c1.8,1.2,3.1,2.9,3.7,5l22,65.4h1.4V31.5z"/>
	<path class="st0" d="M718.3,31.5h-33.9l-36.9,94.7h27.9l6.2-17.3h38.4l5.9,17.3H755L718.3,31.5z M689.2,87.6l11.1-31.7h1.4
		l10.9,31.7H689.2z"/>
</g>
<path class="st1" d="M167.9,231.8v-59.4h-50.4v59.4H79l46.7,46.8c9.4,9.4,24.6,9.4,34,0l46.8-46.8H167.9z M53.8,206.6V79L7,125.7
	c-9.4,9.4-9.4,24.6,0,34L53.8,206.6z M117.5,53.7v59.4h50.4V53.7h38.6L159.7,7c-9.4-9.4-24.6-9.4-34,0L79,53.7H117.5z M278.4,125.7
	L231.7,79v127.5l46.8-46.8c9.4-9.3,9.5-24.5,0.3-33.9c0,0,0,0-0.1-0.1c0,0,0,0-0.2,0L278.4,125.7z"/>
</svg>
